<svg xmlns="http://www.w3.org/2000/svg" viewBox="0 0 100 70" width="100" height="70">
  <!-- Left page -->
  <path d="M50,10 L10,16 L10,58 L50,52 Z" fill="#fff" stroke="#1a1a2e" stroke-width="2"/>
  <!-- Right page -->
  <path d="M50,10 L90,16 L90,58 L50,52 Z" fill="#fff" stroke="#1a1a2e" stroke-width="2"/>
  <!-- Spine -->
  <line x1="50" y1="10" x2="50" y2="52" stroke="#1a1a2e" stroke-width="2"/>
  <!-- Text lines on left -->
  <g stroke="#90A4AE" stroke-width="1" stroke-linecap="round">
    <line x1="16" y1="22" x2="46" y2="20"/>
    <line x1="16" y1="28" x2="46" y2="26"/>
    <line x1="16" y1="34" x2="42" y2="32"/>
    <line x1="16" y1="40" x2="46" y2="38"/>
    <line x1="16" y1="46" x2="40" y2="44"/>
  </g>
  <!-- Text lines on right -->
  <g stroke="#90A4AE" stroke-width="1" stroke-linecap="round">
    <line x1="54" y1="20" x2="84" y2="22"/>
    <line x1="54" y1="26" x2="84" y2="28"/>
    <line x1="58" y1="32" x2="84" y2="34"/>
    <line x1="54" y1="38" x2="84" y2="40"/>
    <line x1="60" y1="44" x2="84" y2="46"/>
  </g>
</svg>
